<?xml version="1.0" encoding="UTF-8" standalone="no"?><!DOCTYPE svg PUBLIC "-//W3C//DTD SVG 1.1//EN" "http://www.w3.org/Graphics/SVG/1.1/DTD/svg11.dtd"><svg width="100%" height="100%" viewBox="0 0 285 285" version="1.1" xmlns="http://www.w3.org/2000/svg" xmlns:xlink="http://www.w3.org/1999/xlink" xml:space="preserve" xmlns:serif="http://www.serif.com/" style="fill-rule:evenodd;clip-rule:evenodd;stroke-linecap:round;stroke-linejoin:round;stroke-miterlimit:1.5;"><rect id="Artboard1" x="0" y="0" width="284.835" height="284.835" style="fill:none;"/><g id="Artboard11" serif:id="Artboard1"><g id="Logo"><path id="egg" d="M141.481,15.66c51.872,-0 93.986,86.529 93.986,156.489c0,69.959 -42.114,97.027 -93.986,97.027c-51.872,-0 -93.986,-27.068 -93.986,-97.027c0,-69.96 42.114,-156.489 93.986,-156.489Z" style="fill:#9a3177;stroke:#9a3177;stroke-width:0.26px;"/><g id="nest"><g id="x"><path d="M178.403,162.489l14.064,14.064l-84.846,84.846l-14.064,-14.064l84.846,-84.846Z" style="fill:#ffe0bc;"/><path d="M107.621,162.489l-14.064,14.064l84.846,84.846l14.064,-14.064l-84.846,-84.846Z" style="fill:#ffe0bc;"/></g><g id="x1" serif:id="x"><path d="M92.136,128.24l14.064,14.064l-84.846,84.846l-14.064,-14.064l84.846,-84.846Z" style="fill:#ffe0bc;"/><path d="M21.354,128.24l-14.064,14.064l84.846,84.846l14.064,-14.064l-84.846,-84.846Z" style="fill:#ffe0bc;"/></g><g id="x2" serif:id="x"><path d="M263.481,128.24l14.064,14.064l-84.846,84.846l-14.064,-14.064l84.846,-84.846Z" style="fill:#ffe0bc;"/><path d="M192.699,128.24l-14.064,14.064l84.846,84.846l14.064,-14.064l-84.846,-84.846Z" style="fill:#ffe0bc;"/></g></g></g></g></svg>